#!OML:ASF F:\VICON\USERDATA\INSTALL\rory3\rory3.ASF
:FULLY-SPECIFIED
:DEGREES
78
root 0.986717 17.7377 -16.5777 -1.89933 -4.55711 -3.93167
lowerback 10.2416 2.72945 4.35667
upperback -0.327459 4.23087 1.18206
thorax -5.86346 1.96517 -1.83799
lowerneck -16.72 -3.74826 -1.53035
upperneck 19.1584 -4.97678 0.879606
head 8.81211 -2.35422 -0.0672999
rclavicle -1.43653e-014 -3.97569e-015
rhumerus -26.2123 -13.9269 -79.2472
rradius 30.05
rwrist 1.53471
rhand -18.2769 22.9251
rfingers 7.12502
rthumb 8.00307 -6.90335
lclavicle -1.43653e-014 -3.97569e-015
lhumerus -41.6859 9.14352 78.7426
lradius 20.6836
lwrist 0.869282
lhand -25.0084 20.935
lfingers 7.12502
lthumb 1.50342 50.9094
rfemur 6.96199 3.35822 27.0203
rtibia 45.391
rfoot -1.03623 3.25205
rtoes -1.50866
lfemur -24.8629 -2.89041 -17.5047
ltibia 27.8622
lfoot -2.90999 -5.59284
ltoes -6.64712
79
root 1.00859 17.7469 -16.3673 -2.05667 -4.59011 -3.81662
lowerback 10.4579 2.67324 4.23883
upperback -0.30986 4.15586 1.22666
thorax -5.98286 1.92923 -1.72737
lowerneck -17.2148 -3.67462 -1.54184
upperneck 19.4777 -4.85566 0.811498
head 9.00814 -2.29974 -0.0864827
rclavicle -4.32854e-014 -6.4605e-015
rhumerus -26.547 -13.9104 -79.1605
rradius 30.0978
rwrist 1.47536
rhand -18.2753 22.9104
rfingers 7.12502
rthumb 8.00463 -6.91797
lclavicle -4.32854e-014 -6.4605e-015
lhumerus -41.8548 9.67862 78.481
lradius 20.7116
lwrist 0.612491
lhand -24.891 19.4093
lfingers 7.12502
lthumb 1.61684 49.383
rfemur 5.79182 3.06024 26.5604
rtibia 47.7754
rfoot 3.70039 4.267
rtoes -1.42759
lfemur -24.2278 -2.63709 -17.9181
ltibia 28.3192
lfoot -3.53828 -5.75342
ltoes -5.13484
80
root 1.03452 17.7709 -16.1564 -2.18734 -4.4764 -3.28691
lowerback 10.3695 2.61307 3.80597
upperback -0.305682 4.01325 1.14558
thorax -5.95935 1.87223 -1.54552
lowerneck -17.0012 -3.61972 -1.66355
upperneck 19.4146 -4.76229 0.869491
head 8.95151 -2.26074 -0.0302175
rclavicle -1.77198e-014 -2.18663e-015
rhumerus -26.9854 -14.0386 -78.9908
rradius 30.1303
rwrist 1.57002
rhand -18.1861 22.7086
rfingers 7.12502
rthumb 8.09072 -7.11656
lclavicle -1.77198e-014 -2.18663e-015
lhumerus -42.1816 9.57797 78.5983
lradius 21.0978
lwrist 1.06126
lhand -24.6896 18.5483
lfingers 7.12502
lthumb 1.81136 48.5203
rfemur 4.45034 2.61814 25.5902
rtibia 50.1529
rfoot 8.34982 5.21529
rtoes -0.581702
lfemur -23.5358 -2.67412 -18.7702
ltibia 28.5239
lfoot -3.73161 -6.45783
ltoes -1.57334
81
root 1.059 17.8084 -15.9469 -2.36852 -4.47373 -2.45519
lowerback 10.3704 2.62315 3.08828
upperback -0.251615 3.92393 0.923265
thorax -5.938 1.84806 -1.36339
lowerneck -17.0008 -3.57258 -1.62615
upperneck 19.3568 -4.70582 0.868757
head 8.92984 -2.23204 -0.0287529
rclavicle -4.01297e-014 -9.14409e-015
rhumerus -27.3577 -14.3945 -78.8814
rradius 30.1723
rwrist 1.74006
rhand -17.9241 22.451
rfingers 7.12502
rthumb 8.34354 -7.36424
lclavicle -4.01297e-014 -9.14409e-015
lhumerus -42.2326 9.52018 78.6065
lradius 21.4177
lwrist 1.3902
lhand -24.46 18.3316
lfingers 7.12502
lthumb 2.03313 48.3017
rfemur 3.09959 2.2813 24.2606
rtibia 52.6014
rfoot 11.9397 5.23619
rtoes 4.70014
lfemur -22.6625 -2.77833 -19.938
ltibia 28.6196
lfoot -3.80474 -6.50463
ltoes 0.993352
82
root 1.07299 17.8396 -15.7492 -2.54375 -4.64644 -2.04811
lowerback 10.5188 2.71611 2.74962
upperback 0.105329 3.98861 0.720091
thorax -5.64982 1.89543 -1.39264
lowerneck -18.5182 -3.61135 -1.31411
upperneck 19.7904 -4.81958 0.811308
head 9.34633 -2.2534 -0.147598
rclavicle -4.70436e-014 -3.18055e-015
rhumerus -26.9678 -15.165 -79.0631
rradius 30.02
rwrist 2.01501
rhand -17.8006 22.3352
rfingers 7.12502
rthumb 8.46274 -7.47527
lclavicle -4.70436e-014 -3.18055e-015
lhumerus -41.3533 9.36194 78.6655
lradius 21.5311
lwrist 1.71892
lhand -24.3528 20.8806
lfingers 7.12502
lthumb 2.1366 50.8497
rfemur 1.62261 2.20609 23.5543
rtibia 55.1705
rfoot 15.7145 4.92376
rtoes 8.82865
lfemur -21.6364 -2.87063 -20.5646
ltibia 28.5561
lfoot -4.13243 -5.94398
ltoes 0.642735
83
root 1.0845 17.8521 -15.5559 -2.59919 -4.91316 -1.83755
lowerback 10.5614 2.79684 2.53298
upperback 0.0540155 4.06954 0.670444
thorax -5.73582 1.93845 -1.33979
lowerneck -18.165 -3.59974 -1.24915
upperneck 19.5753 -4.82134 0.808142
head 9.2056 -2.25427 -0.150298
rclavicle 3.22994e-014 -3.57812e-015
rhumerus -27.3524 -15.317 -79.0197
rradius 29.8947
rwrist 1.96828
rhand -17.871 22.4785
rfingers 7.12502
rthumb 8.39483 -7.33471
lclavicle 3.22994e-014 -3.57812e-015
lhumerus -41.3647 8.97673 78.775
lradius 21.6227
lwrist 2.15299
lhand -24.4256 22.0959
lfingers 7.12502
lthumb 2.06634 52.0656
rfemur -0.093716 2.26115 23.1798
rtibia 57.7387
rfoot 18.6478 4.58415
rtoes 9.44137
lfemur -20.8554 -3.01108 -20.9076
ltibia 28.6105
lfoot -4.40066 -5.27544
ltoes 0.248572
84
root 1.10009 17.8415 -15.365 -2.70772 -5.07944 -1.2526
lowerback 10.6404 2.82192 1.99974
upperback -0.0531666 4.0341 0.532745
thorax -5.9209 1.93032 -1.18939
lowerneck -17.5874 -3.56555 -1.35329
upperneck 19.3902 -4.77105 0.905799
head 9.04201 -2.23366 -0.0804493
rclavicle 4.60497e-014 9.0447e-015
rhumerus -27.8498 -15.1377 -79.0093
rradius 29.8479
rwrist 1.7174
rhand -17.832 22.4824
rfingers 7.12502
rthumb 8.43244 -7.32921
lclavicle 4.60497e-014 9.0447e-015
lhumerus -41.6254 8.36142 79.041
lradius 21.9256
lwrist 3.00265
lhand -24.7973 21.165
lfingers 7.12502
lthumb 1.70736 51.1379
rfemur -1.86403 2.09242 22.3255
rtibia 60.3641
rfoot 19.5819 4.09573
rtoes 6.59255
lfemur -20.2901 -3.27045 -21.6529
ltibia 28.7429
lfoot -4.49344 -5.16839
ltoes 1.97561
85
root 1.11806 17.8853 -15.1698 -2.88799 -5.1695 -0.703858
lowerback 10.8343 2.75712 1.45733
upperback -0.109376 3.88019 0.447126
thorax -6.12381 1.86597 -0.96571
lowerneck -17.3383 -3.40707 -1.48383
upperneck 19.3724 -4.54062 1.00006
head 8.99399 -2.1272 0.00736537
rclavicle 1.36882e-014 1.72943e-014
rhumerus -28.1073 -15.2267 -78.9764
rradius 29.5443
rwrist 1.82557
rhand -17.6693 22.6441
rfingers 7.12502
rthumb 8.58949 -7.16116
lclavicle 1.36882e-014 1.72943e-014
lhumerus -41.8319 8.06541 79.212
lradius 22.2769
lwrist 3.67549
lhand -24.8254 20.9319
lfingers 7.12502
lthumb 1.68022 50.905
rfemur -3.32031 1.71975 21.4874
rtibia 62.6493
rfoot 19.2695 2.37151
rtoes 4.86578
lfemur -19.2114 -3.14355 -22.5309
ltibia 28.8814
lfoot -5.37717 -5.06504
ltoes 2.71353
86
root 1.12785 17.8948 -14.9798 -2.97842 -5.134 -0.523888
lowerback 10.8934 2.66373 1.16007
upperback -0.096457 3.72363 0.519138
thorax -6.17077 1.79872 -0.70285
lowerneck -17.278 -3.28103 -1.645
upperneck 19.2902 -4.33867 1.07569
head 8.95803 -2.03729 0.0871218
rclavicle -1.45951e-014 1.59028e-014
rhumerus -28.2101 -15.449 -78.7706
rradius 28.8949
rwrist 2.15582
rhand -17.6203 23.7455
rfingers 7.12502
rthumb 8.63675 -6.05784
lclavicle -1.45951e-014 1.59028e-014
lhumerus -41.6891 7.86967 79.4256
lradius 22.327
lwrist 3.9822
lhand -24.7081 20.8275
lfingers 7.12502
lthumb 1.79345 50.7997
rfemur -4.81357 1.33002 21.2239
rtibia 64.8315
rfoot 17.5945 0.649677
rtoes 8.39332
lfemur -18.5228 -3.28955 -22.8898
ltibia 28.9173
lfoot -6.07753 -4.7027
ltoes 4.19459
87
root 1.1362 17.892 -14.7944 -3.04064 -5.08722 -0.411718
lowerback 10.7346 2.58389 0.990394
upperback 0.0320419 3.59301 0.541727
thorax -5.95958 1.74313 -0.55185
lowerneck -17.1199 -3.20802 -1.57655
upperneck 18.9499 -4.24146 1.03009
head 8.80863 -1.99504 0.0784668
rclavicle -4.39687e-014 -3.37934e-015
rhumerus -28.278 -16.0304 -78.5534
rradius 28.2401
rwrist 2.71741
rhand -17.2943 25.8961
rfingers 7.12502
rthumb 8.95137 -3.89404
lclavicle -4.39687e-014 -3.37934e-015
lhumerus -41.2745 7.69516 79.5079
lradius 22.1798
lwrist 3.99583
lhand -24.8533 20.0378
lfingers 7.12502
lthumb 1.65322 50.0112
rfemur -6.35894 0.924326 21.0991
rtibia 66.8143
rfoot 14.8696 -0.510459
rtoes 8.96129
lfemur -17.955 -3.45032 -23.1485
ltibia 29.0496
lfoot -6.67425 -4.38956
ltoes 2.35452
88
root 1.14408 17.8953 -14.6106 -3.24245 -4.92341 -0.299875
lowerback 10.7982 2.40753 0.84609
upperback 0.0907215 3.3417 0.563702
thorax -5.94611 1.62441 -0.410556
lowerneck -16.6916 -3.06998 -1.48921
upperneck 18.5652 -4.05773 0.960013
head 8.59443 -1.91535 0.0736979
rclavicle -2.83641e-014 -1.98785e-015
rhumerus -28.4393 -16.3232 -78.4694
rradius 27.8891
rwrist 3.16481
rhand -16.7015 27.2247
rfingers 7.12502
rthumb 9.52331 -2.54009
lclavicle -2.83641e-014 -1.98785e-015
lhumerus -41.2471 7.64034 79.446
lradius 22.338
lwrist 3.93042
lhand -25.0119 20.2433
lfingers 7.12502
lthumb 1.50006 50.2177
rfemur -7.70801 0.4474 20.9968
rtibia 68.6226
rfoot 12.2155 -1.59739
rtoes 8.85706
lfemur -17.1417 -3.72959 -23.4257
ltibia 29.1865
lfoot -6.54867 -4.17222
ltoes -0.244993
89
root 1.14878 17.898 -14.4283 -3.50769 -4.84666 -0.123329
lowerback 11.1444 2.25959 0.620693
upperback 0.00562092 3.12409 0.608248
thorax -6.24745 1.52174 -0.221038
lowerneck -16.1593 -2.93874 -1.56171
upperneck 18.3383 -3.85123 0.908012
head 8.42005 -1.83347 0.103313
rclavicle -1.47225e-015 2.18663e-015
rhumerus -28.9244 -16.0605 -78.4851
rradius 28.0341
rwrist 3.09331
rhand -17.231 25.6245
rfingers 7.12502
rthumb 9.01249 -4.16295
lclavicle -1.47225e-015 2.18663e-015
lhumerus -41.4943 7.68426 79.3742
lradius 22.7113
lwrist 3.71832
lhand -24.9553 21.2902
lfingers 7.12502
lthumb 1.55477 51.2643
rfemur -8.9199 0.0524182 20.796
rtibia 70.2246
rfoot 10.2093 -2.528
rtoes 9.79344
lfemur -16.2536 -3.79115 -23.763
ltibia 29.3299
lfoot -7.49787 -3.80682
ltoes 3.29005
90
root 1.15153 17.902 -14.2519 -3.65605 -4.861 0.0500901
lowerback 11.571 2.22977 0.344808
upperback -0.0735941 3.05327 0.620721
thorax -6.58737 1.49277 -0.0617233
lowerneck -16.4474 -2.93814 -1.5708
upperneck 18.8132 -3.83326 0.82264
head 8.63086 -1.83081 0.0701294
rclavicle 3.08116e-014 1.5704e-014
rhumerus -29.2262 -16.3799 -78.3884
rradius 28.0078
rwrist 3.28745
rhand -17.5392 24.422
rfingers 7.12502
rthumb 8.71507 -5.37813
lclavicle 3.08116e-014 1.5704e-014
lhumerus -41.3266 7.66082 79.3058
lradius 22.8844
lwrist 3.264
lhand -25.0441 22.8112
lfingers 7.12502
lthumb 1.46894 52.7859
rfemur -10.2782 -0.16625 20.6533
rtibia 71.5738
rfoot 8.58557 -3.27048
rtoes 11.3843
lfemur -15.5015 -3.62167 -24.0689
ltibia 29.3975
lfoot -8.09138 -3.40217
ltoes 1.25846
